<svg xmlns="http://www.w3.org/2000/svg" version="1.1" xmlns:xlink="http://www.w3.org/1999/xlink" xmlns:svgjs="http://svgjs.dev/svgjs" width="1920" height="720" preserveAspectRatio="none" viewBox="0 0 1920 720">
    <g mask="url(&quot;#SvgjsMask1000&quot;)" fill="none">
        <rect width="1440" height="560" x="0" y="0" fill="#0e2a47"></rect>
        <path d="M-98.94 373.99L-98.94 373.99" stroke="#132e65" stroke-width="1.5"></path>
        <path d="M-98.94 373.99L-82.29 532.63" stroke="#132e65" stroke-width="1.5"></path>
        <path d="M-98.94 373.99L61.22 412.32" stroke="#132e65" stroke-width="1.5"></path>
        <path d="M-98.94 373.99L52.17 505.81" stroke="#132e65" stroke-width="1.5"></path>
        <path d="M-98.94 373.99L195.41 379.63" stroke="#132e65" stroke-width="1.5"></path>
        <path d="M-98.94 373.99L-37.61 664.26" stroke="#132e65" stroke-width="1.5"></path>
        <path d="M-82.29 532.63L-82.29 532.63" stroke="#132e65" stroke-width="1.5"></path>
        <path d="M-82.29 532.63L52.17 505.81" stroke="#132e65" stroke-width="1.5"></path>
        <path d="M-82.29 532.63L-37.61 664.26" stroke="#132e65" stroke-width="1.5"></path>
        <path d="M-82.29 532.63L61.22 412.32" stroke="#132e65" stroke-width="1.5"></path>
        <path d="M-37.61 664.26L-37.61 664.26" stroke="#132e65" stroke-width="1.5"></path>
        <path d="M-37.61 664.26L53.55 706.45" stroke="#132e65" stroke-width="1.5"></path>
        <path d="M-37.61 664.26L52.17 505.81" stroke="#132e65" stroke-width="1.5"></path>
        <path d="M-37.61 664.26L192.48 660.1" stroke="#132e65" stroke-width="1.5"></path>
        <path d="M-37.61 664.26L61.22 412.32" stroke="#132e65" stroke-width="1.5"></path>
        <path d="M61.22 412.32L61.22 412.32" stroke="#132e65" stroke-width="1.5"></path>
        <path d="M61.22 412.32L52.17 505.81" stroke="#132e65" stroke-width="1.5"></path>
        <path d="M61.22 412.32L195.41 379.63" stroke="#132e65" stroke-width="1.5"></path>
        <path d="M61.22 412.32L231.22 530.46" stroke="#132e65" stroke-width="1.5"></path>
        <path d="M52.17 505.81L52.17 505.81" stroke="#132e65" stroke-width="1.5"></path>
        <path d="M52.17 505.81L231.22 530.46" stroke="#132e65" stroke-width="1.5"></path>
        <path d="M53.55 706.45L53.55 706.45" stroke="#132e65" stroke-width="1.5"></path>
        <path d="M53.55 706.45L192.48 660.1" stroke="#132e65" stroke-width="1.5"></path>
        <path d="M53.55 706.45L52.17 505.81" stroke="#132e65" stroke-width="1.5"></path>
        <path d="M53.55 706.45L-82.29 532.63" stroke="#132e65" stroke-width="1.5"></path>
        <path d="M53.55 706.45L231.22 530.46" stroke="#132e65" stroke-width="1.5"></path>
        <path d="M53.55 706.45L61.22 412.32" stroke="#132e65" stroke-width="1.5"></path>
        <path d="M195.41 379.63L195.41 379.63" stroke="#132e65" stroke-width="1.5"></path>
        <path d="M195.41 379.63L231.22 530.46" stroke="#132e65" stroke-width="1.5"></path>
        <path d="M195.41 379.63L371.45 338.24" stroke="#132e65" stroke-width="1.5"></path>
        <path d="M195.41 379.63L52.17 505.81" stroke="#132e65" stroke-width="1.5"></path>
        <path d="M195.41 379.63L351.42 542.24" stroke="#132e65" stroke-width="1.5"></path>
        <path d="M195.41 379.63L192.48 660.1" stroke="#132e65" stroke-width="1.5"></path>
        <path d="M231.22 530.46L231.22 530.46" stroke="#132e65" stroke-width="1.5"></path>
        <path d="M231.22 530.46L351.42 542.24" stroke="#132e65" stroke-width="1.5"></path>
        <path d="M231.22 530.46L192.48 660.1" stroke="#132e65" stroke-width="1.5"></path>
        <path d="M192.48 660.1L192.48 660.1" stroke="#132e65" stroke-width="1.5"></path>
        <path d="M192.48 660.1L351.42 542.24" stroke="#132e65" stroke-width="1.5"></path>
        <path d="M192.48 660.1L52.17 505.81" stroke="#132e65" stroke-width="1.5"></path>
        <path d="M192.48 660.1L407.97 638.39" stroke="#132e65" stroke-width="1.5"></path>
        <path d="M371.45 338.24L371.45 338.24" stroke="#132e65" stroke-width="1.5"></path>
        <path d="M371.45 338.24L546.64 380.38" stroke="#132e65" stroke-width="1.5"></path>
        <path d="M371.45 338.24L351.42 542.24" stroke="#132e65" stroke-width="1.5"></path>
        <path d="M371.45 338.24L231.22 530.46" stroke="#132e65" stroke-width="1.5"></path>
        <path d="M371.45 338.24L555.43 511.79" stroke="#132e65" stroke-width="1.5"></path>
        <path d="M351.42 542.24L351.42 542.24" stroke="#132e65" stroke-width="1.5"></path>
        <path d="M351.42 542.24L407.97 638.39" stroke="#132e65" stroke-width="1.5"></path>
        <path d="M351.42 542.24L555.43 511.79" stroke="#132e65" stroke-width="1.5"></path>
        <path d="M407.97 638.39L407.97 638.39" stroke="#132e65" stroke-width="1.5"></path>
        <path d="M407.97 638.39L537.55 648.29" stroke="#132e65" stroke-width="1.5"></path>
        <path d="M546.64 380.38L546.64 380.38" stroke="#132e65" stroke-width="1.5"></path>
        <path d="M546.64 380.38L669.64 402.99" stroke="#132e65" stroke-width="1.5"></path>
        <path d="M546.64 380.38L555.43 511.79" stroke="#132e65" stroke-width="1.5"></path>
        <path d="M546.64 380.38L641.28 508.3" stroke="#132e65" stroke-width="1.5"></path>
        <path d="M555.43 511.79L555.43 511.79" stroke="#132e65" stroke-width="1.5"></path>
        <path d="M555.43 511.79L641.28 508.3" stroke="#132e65" stroke-width="1.5"></path>
        <path d="M537.55 648.29L537.55 648.29" stroke="#132e65" stroke-width="1.5"></path>
        <path d="M537.55 648.29L555.43 511.79" stroke="#132e65" stroke-width="1.5"></path>
        <path d="M537.55 648.29L641.28 508.3" stroke="#132e65" stroke-width="1.5"></path>
        <path d="M537.55 648.29L707.17 694.2" stroke="#132e65" stroke-width="1.5"></path>
        <path d="M537.55 648.29L351.42 542.24" stroke="#132e65" stroke-width="1.5"></path>
        <path d="M537.55 648.29L546.64 380.38" stroke="#132e65" stroke-width="1.5"></path>
        <path d="M655.45 222.04L655.45 222.04" stroke="#132e65" stroke-width="1.5"></path>
        <path d="M655.45 222.04L818.65 247.6" stroke="#132e65" stroke-width="1.5"></path>
        <path d="M669.64 402.99L669.64 402.99" stroke="#132e65" stroke-width="1.5"></path>
        <path d="M669.64 402.99L641.28 508.3" stroke="#132e65" stroke-width="1.5"></path>
        <path d="M669.64 402.99L804.62 340.1" stroke="#132e65" stroke-width="1.5"></path>
        <path d="M669.64 402.99L555.43 511.79" stroke="#132e65" stroke-width="1.5"></path>
        <path d="M669.64 402.99L655.45 222.04" stroke="#132e65" stroke-width="1.5"></path>
        <path d="M669.64 402.99L815.39 548.22" stroke="#132e65" stroke-width="1.5"></path>
        <path d="M641.28 508.3L641.28 508.3" stroke="#132e65" stroke-width="1.5"></path>
        <path d="M707.17 694.2L707.17 694.2" stroke="#132e65" stroke-width="1.5"></path>
        <path d="M707.17 694.2L800.51 702.7" stroke="#132e65" stroke-width="1.5"></path>
        <path d="M707.17 694.2L815.39 548.22" stroke="#132e65" stroke-width="1.5"></path>
        <path d="M707.17 694.2L641.28 508.3" stroke="#132e65" stroke-width="1.5"></path>
        <path d="M707.17 694.2L555.43 511.79" stroke="#132e65" stroke-width="1.5"></path>
        <path d="M818.65 247.6L818.65 247.6" stroke="#132e65" stroke-width="1.5"></path>
        <path d="M818.65 247.6L804.62 340.1" stroke="#132e65" stroke-width="1.5"></path>
        <path d="M818.65 247.6L938.65 371.41" stroke="#132e65" stroke-width="1.5"></path>
        <path d="M818.65 247.6L1006.42 262.28" stroke="#132e65" stroke-width="1.5"></path>
        <path d="M818.65 247.6L669.64 402.99" stroke="#132e65" stroke-width="1.5"></path>
        <path d="M818.65 247.6L1007.13 58.53" stroke="#132e65" stroke-width="1.5"></path>
        <path d="M804.62 340.1L804.62 340.1" stroke="#132e65" stroke-width="1.5"></path>
        <path d="M804.62 340.1L938.65 371.41" stroke="#132e65" stroke-width="1.5"></path>
        <path d="M815.39 548.22L815.39 548.22" stroke="#132e65" stroke-width="1.5"></path>
        <path d="M815.39 548.22L800.51 702.7" stroke="#132e65" stroke-width="1.5"></path>
        <path d="M815.39 548.22L641.28 508.3" stroke="#132e65" stroke-width="1.5"></path>
        <path d="M815.39 548.22L966.93 644.67" stroke="#132e65" stroke-width="1.5"></path>
        <path d="M800.51 702.7L800.51 702.7" stroke="#132e65" stroke-width="1.5"></path>
        <path d="M800.51 702.7L966.93 644.67" stroke="#132e65" stroke-width="1.5"></path>
        <path d="M977.08 -70.04L977.08 -70.04" stroke="#132e65" stroke-width="1.5"></path>
        <path d="M977.08 -70.04L1007.13 58.53" stroke="#132e65" stroke-width="1.5"></path>
        <path d="M977.08 -70.04L1159.99 -104.66" stroke="#132e65" stroke-width="1.5"></path>
        <path d="M1007.13 58.53L1007.13 58.53" stroke="#132e65" stroke-width="1.5"></path>
        <path d="M1007.13 58.53L1127.52 109.68" stroke="#132e65" stroke-width="1.5"></path>
        <path d="M1007.13 58.53L1092 208.12" stroke="#132e65" stroke-width="1.5"></path>
        <path d="M1007.13 58.53L1006.42 262.28" stroke="#132e65" stroke-width="1.5"></path>
        <path d="M1007.13 58.53L1159.99 -104.66" stroke="#132e65" stroke-width="1.5"></path>
        <path d="M1006.42 262.28L1006.42 262.28" stroke="#132e65" stroke-width="1.5"></path>
        <path d="M1006.42 262.28L1092 208.12" stroke="#132e65" stroke-width="1.5"></path>
        <path d="M1006.42 262.28L938.65 371.41" stroke="#132e65" stroke-width="1.5"></path>
        <path d="M1006.42 262.28L1110.14 372.36" stroke="#132e65" stroke-width="1.5"></path>
        <path d="M1006.42 262.28L1127.52 109.68" stroke="#132e65" stroke-width="1.5"></path>
        <path d="M938.65 371.41L938.65 371.41" stroke="#132e65" stroke-width="1.5"></path>
        <path d="M938.65 371.41L1110.14 372.36" stroke="#132e65" stroke-width="1.5"></path>
        <path d="M997.71 533.05L997.71 533.05" stroke="#132e65" stroke-width="1.5"></path>
        <path d="M997.71 533.05L966.93 644.67" stroke="#132e65" stroke-width="1.5"></path>
        <path d="M997.71 533.05L1158.26 530.43" stroke="#132e65" stroke-width="1.5"></path>
        <path d="M997.71 533.05L938.65 371.41" stroke="#132e65" stroke-width="1.5"></path>
        <path d="M966.93 644.67L966.93 644.67" stroke="#132e65" stroke-width="1.5"></path>
        <path d="M966.93 644.67L1099.33 703.22" stroke="#132e65" stroke-width="1.5"></path>
        <path d="M1159.99 -104.66L1159.99 -104.66" stroke="#132e65" stroke-width="1.5"></path>
        <path d="M1159.99 -104.66L1127.52 109.68" stroke="#132e65" stroke-width="1.5"></path>
        <path d="M1127.52 109.68L1127.52 109.68" stroke="#132e65" stroke-width="1.5"></path>
        <path d="M1127.52 109.68L1092 208.12" stroke="#132e65" stroke-width="1.5"></path>
        <path d="M1127.52 109.68L1297.93 69.63" stroke="#132e65" stroke-width="1.5"></path>
        <path d="M1127.52 109.68L1285.53 192.47" stroke="#132e65" stroke-width="1.5"></path>
        <path d="M1092 208.12L1092 208.12" stroke="#132e65" stroke-width="1.5"></path>
        <path d="M1092 208.12L1110.14 372.36" stroke="#132e65" stroke-width="1.5"></path>
        <path d="M1110.14 372.36L1110.14 372.36" stroke="#132e65" stroke-width="1.5"></path>
        <path d="M1110.14 372.36L1239.29 354.98" stroke="#132e65" stroke-width="1.5"></path>
        <path d="M1110.14 372.36L1158.26 530.43" stroke="#132e65" stroke-width="1.5"></path>
        <path d="M1158.26 530.43L1158.26 530.43" stroke="#132e65" stroke-width="1.5"></path>
        <path d="M1158.26 530.43L1260.77 552.47" stroke="#132e65" stroke-width="1.5"></path>
        <path d="M1158.26 530.43L1099.33 703.22" stroke="#132e65" stroke-width="1.5"></path>
        <path d="M1158.26 530.43L1239.29 354.98" stroke="#132e65" stroke-width="1.5"></path>
        <path d="M1099.33 703.22L1099.33 703.22" stroke="#132e65" stroke-width="1.5"></path>
        <path d="M1099.33 703.22L997.71 533.05" stroke="#132e65" stroke-width="1.5"></path>
        <path d="M1099.33 703.22L1310.31 656.75" stroke="#132e65" stroke-width="1.5"></path>
        <path d="M1099.33 703.22L1260.77 552.47" stroke="#132e65" stroke-width="1.5"></path>
        <path d="M1297.93 69.63L1297.93 69.63" stroke="#132e65" stroke-width="1.5"></path>
        <path d="M1297.93 69.63L1418.21 77.55" stroke="#132e65" stroke-width="1.5"></path>
        <path d="M1297.93 69.63L1285.53 192.47" stroke="#132e65" stroke-width="1.5"></path>
        <path d="M1297.93 69.63L1395.55 -56.34" stroke="#132e65" stroke-width="1.5"></path>
        <path d="M1285.53 192.47L1285.53 192.47" stroke="#132e65" stroke-width="1.5"></path>
        <path d="M1285.53 192.47L1403.28 241.03" stroke="#132e65" stroke-width="1.5"></path>
        <path d="M1285.53 192.47L1239.29 354.98" stroke="#132e65" stroke-width="1.5"></path>
        <path d="M1239.29 354.98L1239.29 354.98" stroke="#132e65" stroke-width="1.5"></path>
        <path d="M1239.29 354.98L1400.23 390.44" stroke="#132e65" stroke-width="1.5"></path>
        <path d="M1260.77 552.47L1260.77 552.47" stroke="#132e65" stroke-width="1.5"></path>
        <path d="M1260.77 552.47L1310.31 656.75" stroke="#132e65" stroke-width="1.5"></path>
        <path d="M1310.31 656.75L1310.31 656.75" stroke="#132e65" stroke-width="1.5"></path>
        <path d="M1310.31 656.75L1426.36 670.95" stroke="#132e65" stroke-width="1.5"></path>
        <path d="M1310.31 656.75L1447.82 533.63" stroke="#132e65" stroke-width="1.5"></path>
        <path d="M1310.31 656.75L1158.26 530.43" stroke="#132e65" stroke-width="1.5"></path>
        <path d="M1395.55 -56.34L1395.55 -56.34" stroke="#132e65" stroke-width="1.5"></path>
        <path d="M1395.55 -56.34L1418.21 77.55" stroke="#132e65" stroke-width="1.5"></path>
        <path d="M1395.55 -56.34L1555.03 40.28" stroke="#132e65" stroke-width="1.5"></path>
        <path d="M1418.21 77.55L1418.21 77.55" stroke="#132e65" stroke-width="1.5"></path>
        <path d="M1403.28 241.03L1403.28 241.03" stroke="#132e65" stroke-width="1.5"></path>
        <path d="M1403.28 241.03L1400.23 390.44" stroke="#132e65" stroke-width="1.5"></path>
        <path d="M1403.28 241.03L1418.21 77.55" stroke="#132e65" stroke-width="1.5"></path>
        <path d="M1403.28 241.03L1561.59 194.81" stroke="#132e65" stroke-width="1.5"></path>
        <path d="M1403.28 241.03L1239.29 354.98" stroke="#132e65" stroke-width="1.5"></path>
        <path d="M1400.23 390.44L1400.23 390.44" stroke="#132e65" stroke-width="1.5"></path>
        <path d="M1400.23 390.44L1447.82 533.63" stroke="#132e65" stroke-width="1.5"></path>
        <path d="M1447.82 533.63L1447.82 533.63" stroke="#132e65" stroke-width="1.5"></path>
        <path d="M1447.82 533.63L1575.03 523.34" stroke="#132e65" stroke-width="1.5"></path>
        <path d="M1426.36 670.95L1426.36 670.95" stroke="#132e65" stroke-width="1.5"></path>
        <path d="M1426.36 670.95L1553.41 704.25" stroke="#132e65" stroke-width="1.5"></path>
        <path d="M1599.57 -75.81L1599.57 -75.81" stroke="#132e65" stroke-width="1.5"></path>
        <path d="M1599.57 -75.81L1555.03 40.28" stroke="#132e65" stroke-width="1.5"></path>
        <path d="M1599.57 -75.81L1395.55 -56.34" stroke="#132e65" stroke-width="1.5"></path>
        <path d="M1599.57 -75.81L1418.21 77.55" stroke="#132e65" stroke-width="1.5"></path>
        <path d="M1599.57 -75.81L1561.59 194.81" stroke="#132e65" stroke-width="1.5"></path>
        <path d="M1599.57 -75.81L1297.93 69.63" stroke="#132e65" stroke-width="1.5"></path>
        <path d="M1555.03 40.28L1555.03 40.28" stroke="#132e65" stroke-width="1.5"></path>
        <path d="M1555.03 40.28L1418.21 77.55" stroke="#132e65" stroke-width="1.5"></path>
        <path d="M1555.03 40.28L1561.59 194.81" stroke="#132e65" stroke-width="1.5"></path>
        <path d="M1555.03 40.28L1403.28 241.03" stroke="#132e65" stroke-width="1.5"></path>
        <path d="M1555.03 40.28L1297.93 69.63" stroke="#132e65" stroke-width="1.5"></path>
        <path d="M1561.59 194.81L1561.59 194.81" stroke="#132e65" stroke-width="1.5"></path>
        <path d="M1591.43 385.42L1591.43 385.42" stroke="#132e65" stroke-width="1.5"></path>
        <path d="M1591.43 385.42L1575.03 523.34" stroke="#132e65" stroke-width="1.5"></path>
        <path d="M1591.43 385.42L1400.23 390.44" stroke="#132e65" stroke-width="1.5"></path>
        <path d="M1591.43 385.42L1561.59 194.81" stroke="#132e65" stroke-width="1.5"></path>
        <path d="M1591.43 385.42L1447.82 533.63" stroke="#132e65" stroke-width="1.5"></path>
        <path d="M1591.43 385.42L1403.28 241.03" stroke="#132e65" stroke-width="1.5"></path>
        <path d="M1575.03 523.34L1575.03 523.34" stroke="#132e65" stroke-width="1.5"></path>
        <path d="M1575.03 523.34L1553.41 704.25" stroke="#132e65" stroke-width="1.5"></path>
        <path d="M1553.41 704.25L1553.41 704.25" stroke="#132e65" stroke-width="1.5"></path>
        <path d="M1553.41 704.25L1447.82 533.63" stroke="#132e65" stroke-width="1.5"></path>
        <path d="M1553.41 704.25L1310.31 656.75" stroke="#132e65" stroke-width="1.5"></path>
        <path d="M1553.41 704.25L1591.43 385.42" stroke="#132e65" stroke-width="1.5"></path>
        <circle r="5" cx="-98.94" cy="373.99" fill="#132e65"></circle>
        <circle r="5" cx="-82.29" cy="532.63" fill="#132e65"></circle>
        <circle r="5" cx="-37.61" cy="664.26" fill="#132e65"></circle>
        <circle r="5" cx="61.22" cy="412.32" fill="#132e65"></circle>
        <circle r="5" cx="52.17" cy="505.81" fill="#132e65"></circle>
        <circle r="5" cx="53.55" cy="706.45" fill="#132e65"></circle>
        <circle r="5" cx="195.41" cy="379.63" fill="#132e65"></circle>
        <circle r="5" cx="231.22" cy="530.46" fill="#132e65"></circle>
        <circle r="5" cx="192.48" cy="660.1" fill="#132e65"></circle>
        <circle r="5" cx="371.45" cy="338.24" fill="#132e65"></circle>
        <circle r="5" cx="351.42" cy="542.24" fill="#132e65"></circle>
        <circle r="5" cx="407.97" cy="638.39" fill="#132e65"></circle>
        <circle r="5" cx="546.64" cy="380.38" fill="#132e65"></circle>
        <circle r="5" cx="555.43" cy="511.79" fill="#132e65"></circle>
        <circle r="5" cx="537.55" cy="648.29" fill="#132e65"></circle>
        <circle r="5" cx="655.45" cy="222.04" fill="#132e65"></circle>
        <circle r="5" cx="669.64" cy="402.99" fill="#132e65"></circle>
        <circle r="5" cx="641.28" cy="508.3" fill="#132e65"></circle>
        <circle r="5" cx="707.17" cy="694.2" fill="#132e65"></circle>
        <circle r="5" cx="818.65" cy="247.6" fill="#132e65"></circle>
        <circle r="5" cx="804.62" cy="340.1" fill="#132e65"></circle>
        <circle r="5" cx="815.39" cy="548.22" fill="#132e65"></circle>
        <circle r="5" cx="800.51" cy="702.7" fill="#132e65"></circle>
        <circle r="5" cx="977.08" cy="-70.04" fill="#132e65"></circle>
        <circle r="5" cx="1007.13" cy="58.53" fill="#132e65"></circle>
        <circle r="5" cx="1006.42" cy="262.28" fill="#132e65"></circle>
        <circle r="5" cx="938.65" cy="371.41" fill="#132e65"></circle>
        <circle r="5" cx="997.71" cy="533.05" fill="#132e65"></circle>
        <circle r="5" cx="966.93" cy="644.67" fill="#132e65"></circle>
        <circle r="5" cx="1159.99" cy="-104.66" fill="#132e65"></circle>
        <circle r="5" cx="1127.52" cy="109.68" fill="#132e65"></circle>
        <circle r="5" cx="1092" cy="208.12" fill="#132e65"></circle>
        <circle r="5" cx="1110.14" cy="372.36" fill="#132e65"></circle>
        <circle r="5" cx="1158.26" cy="530.43" fill="#132e65"></circle>
        <circle r="5" cx="1099.33" cy="703.22" fill="#132e65"></circle>
        <circle r="5" cx="1297.93" cy="69.63" fill="#132e65"></circle>
        <circle r="5" cx="1285.53" cy="192.47" fill="#132e65"></circle>
        <circle r="5" cx="1239.29" cy="354.98" fill="#132e65"></circle>
        <circle r="5" cx="1260.77" cy="552.47" fill="#132e65"></circle>
        <circle r="5" cx="1310.31" cy="656.75" fill="#132e65"></circle>
        <circle r="5" cx="1395.55" cy="-56.34" fill="#132e65"></circle>
        <circle r="5" cx="1418.21" cy="77.55" fill="#132e65"></circle>
        <circle r="5" cx="1403.28" cy="241.03" fill="#132e65"></circle>
        <circle r="5" cx="1400.23" cy="390.44" fill="#132e65"></circle>
        <circle r="5" cx="1447.82" cy="533.63" fill="#132e65"></circle>
        <circle r="5" cx="1426.36" cy="670.95" fill="#132e65"></circle>
        <circle r="5" cx="1599.57" cy="-75.81" fill="#132e65"></circle>
        <circle r="5" cx="1555.03" cy="40.28" fill="#132e65"></circle>
        <circle r="5" cx="1561.59" cy="194.81" fill="#132e65"></circle>
        <circle r="5" cx="1591.43" cy="385.42" fill="#132e65"></circle>
        <circle r="5" cx="1575.03" cy="523.34" fill="#132e65"></circle>
        <circle r="5" cx="1553.41" cy="704.25" fill="#132e65"></circle>
        <path d="M193.94 705.4L193.94 705.4" stroke="hsl(228.5, 77.2%, 51.5%)" stroke-width="1.5"></path>
        <path d="M193.94 705.4L352.43 709.12" stroke="hsl(228.5, 77.2%, 51.5%)" stroke-width="1.5"></path>
        <path d="M193.94 705.4L109.61 527.8" stroke="hsl(228.5, 77.2%, 51.5%)" stroke-width="1.5"></path>
        <path d="M193.94 705.4L260.96 513.3" stroke="hsl(228.5, 77.2%, 51.5%)" stroke-width="1.5"></path>
        <path d="M193.94 705.4L399.22 509.05" stroke="hsl(228.5, 77.2%, 51.5%)" stroke-width="1.5"></path>
        <path d="M193.94 705.4L-92.24 695.49" stroke="hsl(228.5, 77.2%, 51.5%)" stroke-width="1.5"></path>
        <path d="M554.27 650.21L554.27 650.21" stroke="hsl(228.5, 77.2%, 51.5%)" stroke-width="1.5"></path>
        <path d="M554.27 650.21L657.03 681.16" stroke="hsl(228.5, 77.2%, 51.5%)" stroke-width="1.5"></path>
        <path d="M554.27 650.21L519.27 506.02" stroke="hsl(228.5, 77.2%, 51.5%)" stroke-width="1.5"></path>
        <path d="M554.27 650.21L658.48 513.49" stroke="hsl(228.5, 77.2%, 51.5%)" stroke-width="1.5"></path>
        <path d="M844.76 710.3L844.76 710.3" stroke="hsl(228.5, 77.2%, 51.5%)" stroke-width="1.5"></path>
        <path d="M844.76 710.3L975.14 640.54" stroke="hsl(228.5, 77.2%, 51.5%)" stroke-width="1.5"></path>
        <path d="M844.76 710.3L860.13 550.76" stroke="hsl(228.5, 77.2%, 51.5%)" stroke-width="1.5"></path>
        <path d="M844.76 710.3L657.03 681.16" stroke="hsl(228.5, 77.2%, 51.5%)" stroke-width="1.5"></path>
        <path d="M844.76 710.3L1000.45 490.45" stroke="hsl(228.5, 77.2%, 51.5%)" stroke-width="1.5"></path>
        <path d="M844.76 710.3L658.48 513.49" stroke="hsl(228.5, 77.2%, 51.5%)" stroke-width="1.5"></path>
        <path d="M992.73 246.29L992.73 246.29" stroke="hsl(228.5, 77.2%, 51.5%)" stroke-width="1.5"></path>
        <path d="M992.73 246.29L1113.47 197.55" stroke="hsl(228.5, 77.2%, 51.5%)" stroke-width="1.5"></path>
        <path d="M1133.32 530.83L1133.32 530.83" stroke="hsl(228.5, 77.2%, 51.5%)" stroke-width="1.5"></path>
        <path d="M1133.32 530.83L1116.13 408.81" stroke="hsl(228.5, 77.2%, 51.5%)" stroke-width="1.5"></path>
        <path d="M1133.32 530.83L1000.45 490.45" stroke="hsl(228.5, 77.2%, 51.5%)" stroke-width="1.5"></path>
        <path d="M1133.32 530.83L1143.99 682.73" stroke="hsl(228.5, 77.2%, 51.5%)" stroke-width="1.5"></path>
        <path d="M1133.32 530.83L1294.39 498.51" stroke="hsl(228.5, 77.2%, 51.5%)" stroke-width="1.5"></path>
        <path d="M1133.32 530.83L1268.36 408.76" stroke="hsl(228.5, 77.2%, 51.5%)" stroke-width="1.5"></path>
        <path d="M1244.64 232.51L1244.64 232.51" stroke="hsl(228.5, 77.2%, 51.5%)" stroke-width="1.5"></path>
        <path d="M1244.64 232.51L1113.47 197.55" stroke="hsl(228.5, 77.2%, 51.5%)" stroke-width="1.5"></path>
        <path d="M1244.64 232.51L1147.21 85.1" stroke="hsl(228.5, 77.2%, 51.5%)" stroke-width="1.5"></path>
        <path d="M1244.64 232.51L1268.36 408.76" stroke="hsl(228.5, 77.2%, 51.5%)" stroke-width="1.5"></path>
        <path d="M1244.64 232.51L1245.51 46.67" stroke="hsl(228.5, 77.2%, 51.5%)" stroke-width="1.5"></path>
        <path d="M1244.64 232.51L1411.08 347.8" stroke="hsl(228.5, 77.2%, 51.5%)" stroke-width="1.5"></path>
        <path d="M1446.37 254.41L1446.37 254.41" stroke="hsl(228.5, 77.2%, 51.5%)" stroke-width="1.5"></path>
        <path d="M1446.37 254.41L1411.08 347.8" stroke="hsl(228.5, 77.2%, 51.5%)" stroke-width="1.5"></path>
        <path d="M1446.37 254.41L1578.67 197.81" stroke="hsl(228.5, 77.2%, 51.5%)" stroke-width="1.5"></path>
        <path d="M1446.37 254.41L1564.98 394.38" stroke="hsl(228.5, 77.2%, 51.5%)" stroke-width="1.5"></path>
        <path d="M1446.37 254.41L1244.64 232.51" stroke="hsl(228.5, 77.2%, 51.5%)" stroke-width="1.5"></path>
        <path d="M1446.37 254.41L1268.36 408.76" stroke="hsl(228.5, 77.2%, 51.5%)" stroke-width="1.5"></path>
        <path d="M1411.08 347.8L1411.08 347.8" stroke="hsl(228.5, 77.2%, 51.5%)" stroke-width="1.5"></path>
        <path d="M1411.08 347.8L1268.36 408.76" stroke="hsl(228.5, 77.2%, 51.5%)" stroke-width="1.5"></path>
        <path d="M1411.08 347.8L1564.98 394.38" stroke="hsl(228.5, 77.2%, 51.5%)" stroke-width="1.5"></path>
        <path d="M1411.08 347.8L1294.39 498.51" stroke="hsl(228.5, 77.2%, 51.5%)" stroke-width="1.5"></path>
        <path d="M1413.39 667.49L1413.39 667.49" stroke="hsl(228.5, 77.2%, 51.5%)" stroke-width="1.5"></path>
        <path d="M1413.39 667.49L1293.63 696.94" stroke="hsl(228.5, 77.2%, 51.5%)" stroke-width="1.5"></path>
        <path d="M1413.39 667.49L1454.88 539.71" stroke="hsl(228.5, 77.2%, 51.5%)" stroke-width="1.5"></path>
        <path d="M1413.39 667.49L1571.53 696" stroke="hsl(228.5, 77.2%, 51.5%)" stroke-width="1.5"></path>
        <path d="M1564.98 394.38L1564.98 394.38" stroke="hsl(228.5, 77.2%, 51.5%)" stroke-width="1.5"></path>
        <path d="M1564.98 394.38L1454.88 539.71" stroke="hsl(228.5, 77.2%, 51.5%)" stroke-width="1.5"></path>
        <path d="M1564.98 394.38L1578.67 197.81" stroke="hsl(228.5, 77.2%, 51.5%)" stroke-width="1.5"></path>
        <path d="M1564.98 394.38L1294.39 498.51" stroke="hsl(228.5, 77.2%, 51.5%)" stroke-width="1.5"></path>
        <path d="M1564.98 394.38L1268.36 408.76" stroke="hsl(228.5, 77.2%, 51.5%)" stroke-width="1.5"></path>
        <path d="M-83.88 532.26L-83.88 532.26" stroke="hsl(228.5, 77.2%, 51.5%)" stroke-width="1.5"></path>
        <path d="M-83.88 532.26L-92.24 695.49" stroke="hsl(228.5, 77.2%, 51.5%)" stroke-width="1.5"></path>
        <path d="M-83.88 532.26L109.61 527.8" stroke="hsl(228.5, 77.2%, 51.5%)" stroke-width="1.5"></path>
        <path d="M-83.88 532.26L193.94 705.4" stroke="hsl(228.5, 77.2%, 51.5%)" stroke-width="1.5"></path>
        <path d="M-83.88 532.26L260.96 513.3" stroke="hsl(228.5, 77.2%, 51.5%)" stroke-width="1.5"></path>
        <path d="M-83.88 532.26L352.43 709.12" stroke="hsl(228.5, 77.2%, 51.5%)" stroke-width="1.5"></path>
        <path d="M-92.24 695.49L-92.24 695.49" stroke="hsl(228.5, 77.2%, 51.5%)" stroke-width="1.5"></path>
        <path d="M-92.24 695.49L109.61 527.8" stroke="hsl(228.5, 77.2%, 51.5%)" stroke-width="1.5"></path>
        <path d="M-92.24 695.49L260.96 513.3" stroke="hsl(228.5, 77.2%, 51.5%)" stroke-width="1.5"></path>
        <path d="M-92.24 695.49L352.43 709.12" stroke="hsl(228.5, 77.2%, 51.5%)" stroke-width="1.5"></path>
        <path d="M-92.24 695.49L399.22 509.05" stroke="hsl(228.5, 77.2%, 51.5%)" stroke-width="1.5"></path>
        <path d="M109.61 527.8L109.61 527.8" stroke="hsl(228.5, 77.2%, 51.5%)" stroke-width="1.5"></path>
        <path d="M109.61 527.8L260.96 513.3" stroke="hsl(228.5, 77.2%, 51.5%)" stroke-width="1.5"></path>
        <path d="M109.61 527.8L399.22 509.05" stroke="hsl(228.5, 77.2%, 51.5%)" stroke-width="1.5"></path>
        <path d="M260.96 513.3L260.96 513.3" stroke="hsl(228.5, 77.2%, 51.5%)" stroke-width="1.5"></path>
        <path d="M260.96 513.3L399.22 509.05" stroke="hsl(228.5, 77.2%, 51.5%)" stroke-width="1.5"></path>
        <path d="M399.22 509.05L399.22 509.05" stroke="hsl(228.5, 77.2%, 51.5%)" stroke-width="1.5"></path>
        <path d="M399.22 509.05L519.27 506.02" stroke="hsl(228.5, 77.2%, 51.5%)" stroke-width="1.5"></path>
        <path d="M399.22 509.05L352.43 709.12" stroke="hsl(228.5, 77.2%, 51.5%)" stroke-width="1.5"></path>
        <path d="M352.43 709.12L352.43 709.12" stroke="hsl(228.5, 77.2%, 51.5%)" stroke-width="1.5"></path>
        <path d="M352.43 709.12L554.27 650.21" stroke="hsl(228.5, 77.2%, 51.5%)" stroke-width="1.5"></path>
        <path d="M352.43 709.12L260.96 513.3" stroke="hsl(228.5, 77.2%, 51.5%)" stroke-width="1.5"></path>
        <path d="M519.27 506.02L519.27 506.02" stroke="hsl(228.5, 77.2%, 51.5%)" stroke-width="1.5"></path>
        <path d="M519.27 506.02L658.48 513.49" stroke="hsl(228.5, 77.2%, 51.5%)" stroke-width="1.5"></path>
        <path d="M519.27 506.02L639.81 386.19" stroke="hsl(228.5, 77.2%, 51.5%)" stroke-width="1.5"></path>
        <path d="M639.81 386.19L639.81 386.19" stroke="hsl(228.5, 77.2%, 51.5%)" stroke-width="1.5"></path>
        <path d="M639.81 386.19L658.48 513.49" stroke="hsl(228.5, 77.2%, 51.5%)" stroke-width="1.5"></path>
        <path d="M639.81 386.19L832.06 387.09" stroke="hsl(228.5, 77.2%, 51.5%)" stroke-width="1.5"></path>
        <path d="M639.81 386.19L399.22 509.05" stroke="hsl(228.5, 77.2%, 51.5%)" stroke-width="1.5"></path>
        <path d="M658.48 513.49L658.48 513.49" stroke="hsl(228.5, 77.2%, 51.5%)" stroke-width="1.5"></path>
        <path d="M658.48 513.49L657.03 681.16" stroke="hsl(228.5, 77.2%, 51.5%)" stroke-width="1.5"></path>
        <path d="M658.48 513.49L860.13 550.76" stroke="hsl(228.5, 77.2%, 51.5%)" stroke-width="1.5"></path>
        <path d="M658.48 513.49L832.06 387.09" stroke="hsl(228.5, 77.2%, 51.5%)" stroke-width="1.5"></path>
        <path d="M657.03 681.16L657.03 681.16" stroke="hsl(228.5, 77.2%, 51.5%)" stroke-width="1.5"></path>
        <path d="M832.06 387.09L832.06 387.09" stroke="hsl(228.5, 77.2%, 51.5%)" stroke-width="1.5"></path>
        <path d="M832.06 387.09L977.29 379.74" stroke="hsl(228.5, 77.2%, 51.5%)" stroke-width="1.5"></path>
        <path d="M832.06 387.09L860.13 550.76" stroke="hsl(228.5, 77.2%, 51.5%)" stroke-width="1.5"></path>
        <path d="M832.06 387.09L1000.45 490.45" stroke="hsl(228.5, 77.2%, 51.5%)" stroke-width="1.5"></path>
        <path d="M832.06 387.09L992.73 246.29" stroke="hsl(228.5, 77.2%, 51.5%)" stroke-width="1.5"></path>
        <path d="M860.13 550.76L860.13 550.76" stroke="hsl(228.5, 77.2%, 51.5%)" stroke-width="1.5"></path>
        <path d="M860.13 550.76L975.14 640.54" stroke="hsl(228.5, 77.2%, 51.5%)" stroke-width="1.5"></path>
        <path d="M860.13 550.76L1000.45 490.45" stroke="hsl(228.5, 77.2%, 51.5%)" stroke-width="1.5"></path>
        <path d="M977.29 379.74L977.29 379.74" stroke="hsl(228.5, 77.2%, 51.5%)" stroke-width="1.5"></path>
        <path d="M977.29 379.74L1000.45 490.45" stroke="hsl(228.5, 77.2%, 51.5%)" stroke-width="1.5"></path>
        <path d="M977.29 379.74L992.73 246.29" stroke="hsl(228.5, 77.2%, 51.5%)" stroke-width="1.5"></path>
        <path d="M977.29 379.74L1116.13 408.81" stroke="hsl(228.5, 77.2%, 51.5%)" stroke-width="1.5"></path>
        <path d="M977.29 379.74L860.13 550.76" stroke="hsl(228.5, 77.2%, 51.5%)" stroke-width="1.5"></path>
        <path d="M977.29 379.74L1133.32 530.83" stroke="hsl(228.5, 77.2%, 51.5%)" stroke-width="1.5"></path>
        <path d="M1000.45 490.45L1000.45 490.45" stroke="hsl(228.5, 77.2%, 51.5%)" stroke-width="1.5"></path>
        <path d="M975.14 640.54L975.14 640.54" stroke="hsl(228.5, 77.2%, 51.5%)" stroke-width="1.5"></path>
        <path d="M1147.21 85.1L1147.21 85.1" stroke="hsl(228.5, 77.2%, 51.5%)" stroke-width="1.5"></path>
        <path d="M1147.21 85.1L1245.51 46.67" stroke="hsl(228.5, 77.2%, 51.5%)" stroke-width="1.5"></path>
        <path d="M1147.21 85.1L1113.47 197.55" stroke="hsl(228.5, 77.2%, 51.5%)" stroke-width="1.5"></path>
        <path d="M1147.21 85.1L1237.6 -49.85" stroke="hsl(228.5, 77.2%, 51.5%)" stroke-width="1.5"></path>
        <path d="M1113.47 197.55L1113.47 197.55" stroke="hsl(228.5, 77.2%, 51.5%)" stroke-width="1.5"></path>
        <path d="M1116.13 408.81L1116.13 408.81" stroke="hsl(228.5, 77.2%, 51.5%)" stroke-width="1.5"></path>
        <path d="M1116.13 408.81L1000.45 490.45" stroke="hsl(228.5, 77.2%, 51.5%)" stroke-width="1.5"></path>
        <path d="M1116.13 408.81L1268.36 408.76" stroke="hsl(228.5, 77.2%, 51.5%)" stroke-width="1.5"></path>
        <path d="M1116.13 408.81L1294.39 498.51" stroke="hsl(228.5, 77.2%, 51.5%)" stroke-width="1.5"></path>
        <path d="M1143.99 682.73L1143.99 682.73" stroke="hsl(228.5, 77.2%, 51.5%)" stroke-width="1.5"></path>
        <path d="M1143.99 682.73L1293.63 696.94" stroke="hsl(228.5, 77.2%, 51.5%)" stroke-width="1.5"></path>
        <path d="M1237.6 -49.85L1237.6 -49.85" stroke="hsl(228.5, 77.2%, 51.5%)" stroke-width="1.5"></path>
        <path d="M1237.6 -49.85L1245.51 46.67" stroke="hsl(228.5, 77.2%, 51.5%)" stroke-width="1.5"></path>
        <path d="M1245.51 46.67L1245.51 46.67" stroke="hsl(228.5, 77.2%, 51.5%)" stroke-width="1.5"></path>
        <path d="M1245.51 46.67L1113.47 197.55" stroke="hsl(228.5, 77.2%, 51.5%)" stroke-width="1.5"></path>
        <path d="M1245.51 46.67L1456.74 -37.68" stroke="hsl(228.5, 77.2%, 51.5%)" stroke-width="1.5"></path>
        <path d="M1268.36 408.76L1268.36 408.76" stroke="hsl(228.5, 77.2%, 51.5%)" stroke-width="1.5"></path>
        <path d="M1268.36 408.76L1294.39 498.51" stroke="hsl(228.5, 77.2%, 51.5%)" stroke-width="1.5"></path>
        <path d="M1294.39 498.51L1294.39 498.51" stroke="hsl(228.5, 77.2%, 51.5%)" stroke-width="1.5"></path>
        <path d="M1293.63 696.94L1293.63 696.94" stroke="hsl(228.5, 77.2%, 51.5%)" stroke-width="1.5"></path>
        <path d="M1293.63 696.94L1294.39 498.51" stroke="hsl(228.5, 77.2%, 51.5%)" stroke-width="1.5"></path>
        <path d="M1293.63 696.94L1454.88 539.71" stroke="hsl(228.5, 77.2%, 51.5%)" stroke-width="1.5"></path>
        <path d="M1456.74 -37.68L1456.74 -37.68" stroke="hsl(228.5, 77.2%, 51.5%)" stroke-width="1.5"></path>
        <path d="M1456.74 -37.68L1580.56 54.93" stroke="hsl(228.5, 77.2%, 51.5%)" stroke-width="1.5"></path>
        <path d="M1456.74 -37.68L1237.6 -49.85" stroke="hsl(228.5, 77.2%, 51.5%)" stroke-width="1.5"></path>
        <path d="M1456.74 -37.68L1578.67 197.81" stroke="hsl(228.5, 77.2%, 51.5%)" stroke-width="1.5"></path>
        <path d="M1454.88 539.71L1454.88 539.71" stroke="hsl(228.5, 77.2%, 51.5%)" stroke-width="1.5"></path>
        <path d="M1454.88 539.71L1294.39 498.51" stroke="hsl(228.5, 77.2%, 51.5%)" stroke-width="1.5"></path>
        <path d="M1454.88 539.71L1571.53 696" stroke="hsl(228.5, 77.2%, 51.5%)" stroke-width="1.5"></path>
        <path d="M1454.88 539.71L1411.08 347.8" stroke="hsl(228.5, 77.2%, 51.5%)" stroke-width="1.5"></path>
        <path d="M1580.56 54.93L1580.56 54.93" stroke="hsl(228.5, 77.2%, 51.5%)" stroke-width="1.5"></path>
        <path d="M1580.56 54.93L1578.67 197.81" stroke="hsl(228.5, 77.2%, 51.5%)" stroke-width="1.5"></path>
        <path d="M1578.67 197.81L1578.67 197.81" stroke="hsl(228.5, 77.2%, 51.5%)" stroke-width="1.5"></path>
        <path d="M1578.67 197.81L1411.08 347.8" stroke="hsl(228.5, 77.2%, 51.5%)" stroke-width="1.5"></path>
        <path d="M1571.53 696L1571.53 696" stroke="hsl(228.5, 77.2%, 51.5%)" stroke-width="1.5"></path>
        <path d="M1571.53 696L1293.63 696.94" stroke="hsl(228.5, 77.2%, 51.5%)" stroke-width="1.5"></path>
        <path d="M1571.53 696L1564.98 394.38" stroke="hsl(228.5, 77.2%, 51.5%)" stroke-width="1.5"></path>
        <path d="M1571.53 696L1294.39 498.51" stroke="hsl(228.5, 77.2%, 51.5%)" stroke-width="1.5"></path>
        <path d="M1571.53 696L1411.08 347.8" stroke="hsl(228.5, 77.2%, 51.5%)" stroke-width="1.5"></path>
        <circle r="25" cx="193.94" cy="705.4" fill="url(&quot;#SvgjsRadialGradient1001&quot;)"></circle>
        <circle r="25" cx="554.27" cy="650.21" fill="url(&quot;#SvgjsRadialGradient1001&quot;)"></circle>
        <circle r="25" cx="844.76" cy="710.3" fill="url(&quot;#SvgjsRadialGradient1001&quot;)"></circle>
        <circle r="25" cx="992.73" cy="246.29" fill="url(&quot;#SvgjsRadialGradient1001&quot;)"></circle>
        <circle r="25" cx="1133.32" cy="530.83" fill="url(&quot;#SvgjsRadialGradient1001&quot;)"></circle>
        <circle r="25" cx="1244.64" cy="232.51" fill="url(&quot;#SvgjsRadialGradient1001&quot;)"></circle>
        <circle r="25" cx="1446.37" cy="254.41" fill="url(&quot;#SvgjsRadialGradient1001&quot;)"></circle>
        <circle r="25" cx="1411.08" cy="347.8" fill="url(&quot;#SvgjsRadialGradient1001&quot;)"></circle>
        <circle r="25" cx="1413.39" cy="667.49" fill="url(&quot;#SvgjsRadialGradient1001&quot;)"></circle>
        <circle r="25" cx="1564.98" cy="394.38" fill="url(&quot;#SvgjsRadialGradient1001&quot;)"></circle>
        <circle r="5" cx="-83.88" cy="532.26" fill="#8b9ad9"></circle>
        <circle r="5" cx="-92.24" cy="695.49" fill="#8b9ad9"></circle>
        <circle r="5" cx="109.61" cy="527.8" fill="#8b9ad9"></circle>
        <circle r="5" cx="260.96" cy="513.3" fill="#8b9ad9"></circle>
        <circle r="5" cx="399.22" cy="509.05" fill="#8b9ad9"></circle>
        <circle r="5" cx="352.43" cy="709.12" fill="#8b9ad9"></circle>
        <circle r="5" cx="519.27" cy="506.02" fill="#8b9ad9"></circle>
        <circle r="5" cx="639.81" cy="386.19" fill="#8b9ad9"></circle>
        <circle r="5" cx="658.48" cy="513.49" fill="#8b9ad9"></circle>
        <circle r="5" cx="657.03" cy="681.16" fill="#8b9ad9"></circle>
        <circle r="5" cx="832.06" cy="387.09" fill="#8b9ad9"></circle>
        <circle r="5" cx="860.13" cy="550.76" fill="#8b9ad9"></circle>
        <circle r="5" cx="977.29" cy="379.74" fill="#8b9ad9"></circle>
        <circle r="5" cx="1000.45" cy="490.45" fill="#8b9ad9"></circle>
        <circle r="5" cx="975.14" cy="640.54" fill="#8b9ad9"></circle>
        <circle r="5" cx="1147.21" cy="85.1" fill="#8b9ad9"></circle>
        <circle r="5" cx="1113.47" cy="197.55" fill="#8b9ad9"></circle>
        <circle r="5" cx="1116.13" cy="408.81" fill="#8b9ad9"></circle>
        <circle r="5" cx="1143.99" cy="682.73" fill="#8b9ad9"></circle>
        <circle r="5" cx="1237.6" cy="-49.85" fill="#8b9ad9"></circle>
        <circle r="5" cx="1245.51" cy="46.67" fill="#8b9ad9"></circle>
        <circle r="5" cx="1268.36" cy="408.76" fill="#8b9ad9"></circle>
        <circle r="5" cx="1294.39" cy="498.51" fill="#8b9ad9"></circle>
        <circle r="5" cx="1293.63" cy="696.94" fill="#8b9ad9"></circle>
        <circle r="5" cx="1456.74" cy="-37.68" fill="#8b9ad9"></circle>
        <circle r="5" cx="1454.88" cy="539.71" fill="#8b9ad9"></circle>
        <circle r="5" cx="1580.56" cy="54.93" fill="#8b9ad9"></circle>
        <circle r="5" cx="1578.67" cy="197.81" fill="#8b9ad9"></circle>
        <circle r="5" cx="1571.53" cy="696" fill="#8b9ad9"></circle>
    </g>
    <defs>
        <mask id="SvgjsMask1000">
            <rect width="1920" height="720" fill="#ffffff"></rect>
        </mask>
        <radialGradient id="SvgjsRadialGradient1001">
            <stop stop-color="#ffffff" offset="0.1"></stop>
            <stop stop-color="#1735b3" offset="0.2"></stop>
            <stop stop-color="rgba(23, 53, 179, 0)" offset="1"></stop>
        </radialGradient>
    </defs>
</svg>